<svg width="185" height="137" viewBox="0 0 185 137" fill="none" xmlns="http://www.w3.org/2000/svg">
<path d="M164.388 86.5266C170.604 83.8535 174.078 79.816 174.692 75.4242C174.73 75.1527 174.757 74.8799 174.773 74.606C175.025 70.3016 172.573 65.722 167.306 61.7923L167.105 61.6419L117.402 24.5571C106.378 16.3313 87.1972 14.0686 74.5612 19.5032L19.6505 43.1197C19.0407 43.382 18.4572 43.6574 17.9002 43.945C12.8922 46.5311 10.027 50.1021 9.38638 53.9644C8.62211 58.5724 11.0245 63.595 16.7327 67.854L66.6367 105.089C77.6611 113.315 96.8417 115.578 109.478 110.143L164.388 86.5266Z" fill="url(#paint0_linear_2830_7564)"/>
<path d="M164.388 86.5266C170.604 83.8535 174.078 79.816 174.692 75.4242C174.73 75.1527 174.757 74.8799 174.773 74.606C175.025 70.3016 172.573 65.722 167.306 61.7923L167.105 61.6419L117.402 24.5571C106.378 16.3313 87.1972 14.0686 74.5612 19.5032L19.6505 43.1197C19.0407 43.382 18.4572 43.6574 17.9002 43.945C12.8922 46.5311 10.027 50.1021 9.38638 53.9644C8.62211 58.5724 11.0245 63.595 16.7327 67.854L66.6367 105.089C77.6611 113.315 96.8417 115.578 109.478 110.143L164.388 86.5266Z" fill="url(#paint1_radial_2830_7564)" fill-opacity="0.9"/>
<path d="M174.773 74.606C175.025 70.3016 172.573 65.722 167.306 61.7923L167.105 61.6419L176.35 66.7974L174.773 74.606Z" fill="url(#paint2_linear_2830_7564)"/>
<path d="M174.773 74.606C175.025 70.3016 172.573 65.722 167.306 61.7923L167.105 61.6419L176.35 66.7974L174.773 74.606Z" fill="url(#paint3_radial_2830_7564)" fill-opacity="0.9"/>
<path d="M9.38638 53.9644L9.12827 45.4396L17.9002 43.945C12.8922 46.5311 10.027 50.1021 9.38638 53.9644Z" fill="url(#paint4_linear_2830_7564)"/>
<path d="M9.38638 53.9644L9.12827 45.4396L17.9002 43.945C12.8922 46.5311 10.027 50.1021 9.38638 53.9644Z" fill="url(#paint5_radial_2830_7564)" fill-opacity="0.9"/>
<path d="M167.084 76.3868C178.72 71.3823 179.923 61.1849 169.771 53.6101L116.707 14.0173C106.555 6.44255 88.8927 4.35892 77.2568 9.36338L18.7244 34.5375C7.08856 39.542 5.88561 49.7394 16.0375 57.3142L69.1013 96.907C79.2533 104.482 96.9158 106.565 108.552 101.561L167.084 76.3868Z" fill="url(#paint6_linear_2830_7564)"/>
<g filter="url(#filter0_f_2830_7564)">
<rect width="61.4684" height="59.923" rx="29.9615" transform="matrix(-0.935703 0.35279 0.821528 0.570168 97.0474 24.6692)" fill="#52FFA1"/>
<path d="M108.207 59.4004C108.679 59.2223 108.967 58.9371 109.008 58.6077L110.094 49.8244C110.12 49.6602 110.083 49.4893 109.986 49.3217C109.889 49.1541 109.733 48.9932 109.527 48.8483C109.321 48.7035 109.07 48.5776 108.789 48.478C108.507 48.3783 108.2 48.307 107.886 48.2682C107.572 48.2293 107.257 48.2237 106.96 48.2517C106.662 48.2797 106.388 48.3406 106.153 48.431C105.919 48.5214 105.728 48.6395 105.593 48.7783C105.458 48.9171 105.38 49.0738 105.365 49.2394L104.461 56.5337L70.8625 49.0814C70.5579 49.0097 70.2396 48.9697 69.9264 48.9635C69.6131 48.9573 69.3112 48.9852 69.0385 49.0456C68.7657 49.1059 68.5276 49.1974 68.338 49.3147C68.1485 49.432 68.0114 49.5728 67.9349 49.7287C67.8583 49.8846 67.8438 50.0526 67.8922 50.2227C67.9406 50.3928 68.0509 50.5616 68.2167 50.7192C68.3824 50.8768 68.6003 51.02 68.8574 51.1404C69.1146 51.2608 69.4058 51.3559 69.7141 51.4202L106.069 59.4846C106.406 59.5604 106.758 59.5976 107.1 59.5935C107.442 59.5894 107.765 59.5441 108.047 59.4608C108.1 59.4407 108.153 59.4205 108.207 59.4004Z" fill="#081910"/>
</g>
<rect width="61.4684" height="59.923" rx="29.9615" transform="matrix(-0.935703 0.35279 0.821528 0.570168 97.0474 24.6692)" fill="#52FFA1"/>
<path d="M77.597 59.4004C77.1248 59.2223 76.8367 58.9371 76.7961 58.6077L75.7095 49.8244C75.6837 49.6602 75.7205 49.4893 75.818 49.3217C75.9154 49.1541 76.0714 48.9932 76.277 48.8483C76.4826 48.7035 76.7335 48.5776 77.0152 48.478C77.2969 48.3783 77.6038 48.307 77.9178 48.2682C78.2318 48.2293 78.5467 48.2237 78.8442 48.2517C79.1417 48.2797 79.4158 48.3406 79.6505 48.431C79.8851 48.5214 80.0757 48.6395 80.211 48.7783C80.3463 48.9171 80.4237 49.0738 80.4387 49.2394L81.3427 56.5337L114.941 49.0814C115.246 49.0097 115.564 48.9697 115.878 48.9635C116.191 48.9573 116.493 48.9852 116.765 49.0456C117.038 49.1059 117.276 49.1974 117.466 49.3147C117.655 49.432 117.793 49.5728 117.869 49.7287C117.946 49.8846 117.96 50.0526 117.912 50.2227C117.863 50.3928 117.753 50.5616 117.587 50.7192C117.422 50.8768 117.204 51.02 116.947 51.1404C116.689 51.2608 116.398 51.3559 116.09 51.4202L79.7349 59.4846C79.3978 59.5604 79.0458 59.5976 78.7041 59.5935C78.3623 59.5894 78.0391 59.5441 77.7573 59.4608C77.7039 59.4407 77.6505 59.4205 77.597 59.4004Z" fill="#081910"/>
<g style="mix-blend-mode:screen">
<path d="M169.527 53.9377C174.534 57.6736 176.655 61.9888 176.192 65.9144C175.729 69.8401 172.662 73.5431 166.923 76.0114L108.39 101.186C102.654 103.653 95.4046 104.381 88.3179 103.545C81.2311 102.709 74.3506 100.314 69.3457 96.5795L16.2819 56.9867C11.2749 53.2507 9.1533 48.9355 9.6164 45.0099C10.0795 41.0842 13.1469 37.3812 18.8859 34.9129L77.4183 9.73879C83.1548 7.27156 90.4039 6.54295 97.4906 7.37897C104.577 8.21498 111.458 10.6104 116.463 14.3448L169.527 53.9377Z" fill="url(#paint7_radial_2830_7564)"/>
<path d="M169.527 53.9377C174.534 57.6736 176.655 61.9888 176.192 65.9144C175.729 69.8401 172.662 73.5431 166.923 76.0114L108.39 101.186C102.654 103.653 95.4046 104.381 88.3179 103.545C81.2311 102.709 74.3506 100.314 69.3457 96.5795L16.2819 56.9867C11.2749 53.2507 9.1533 48.9355 9.6164 45.0099C10.0795 41.0842 13.1469 37.3812 18.8859 34.9129L77.4183 9.73879C83.1548 7.27156 90.4039 6.54295 97.4906 7.37897C104.577 8.21498 111.458 10.6104 116.463 14.3448L169.527 53.9377Z" fill="url(#paint8_radial_2830_7564)"/>
<path d="M169.527 53.9377C174.534 57.6736 176.655 61.9888 176.192 65.9144C175.729 69.8401 172.662 73.5431 166.923 76.0114L108.39 101.186C102.654 103.653 95.4046 104.381 88.3179 103.545C81.2311 102.709 74.3506 100.314 69.3457 96.5795L16.2819 56.9867C11.2749 53.2507 9.1533 48.9355 9.6164 45.0099C10.0795 41.0842 13.1469 37.3812 18.8859 34.9129L77.4183 9.73879C83.1548 7.27156 90.4039 6.54295 97.4906 7.37897C104.577 8.21498 111.458 10.6104 116.463 14.3448L169.527 53.9377Z" stroke="url(#paint9_linear_2830_7564)" stroke-width="0.817297"/>
</g>
<defs>
<filter id="filter0_f_2830_7564" x="7.65664" y="-7.20542" width="170.494" height="119.601" filterUnits="userSpaceOnUse" color-interpolation-filters="sRGB">
<feFlood flood-opacity="0" result="BackgroundImageFix"/>
<feBlend mode="normal" in="SourceGraphic" in2="BackgroundImageFix" result="shape"/>
<feGaussianBlur stdDeviation="15.9373" result="effect1_foregroundBlur_2830_7564"/>
</filter>
<linearGradient id="paint0_linear_2830_7564" x1="3.41175" y1="19.2287" x2="114.897" y2="70.7008" gradientUnits="userSpaceOnUse">
<stop offset="0.160598" stop-color="#010916"/>
<stop offset="1" stop-color="#1D1A24"/>
</linearGradient>
<radialGradient id="paint1_radial_2830_7564" cx="0" cy="0" r="1" gradientUnits="userSpaceOnUse" gradientTransform="translate(17.6903 95.4055) rotate(-55.9344) scale(157.001 1060.5)">
<stop stop-color="white"/>
<stop offset="0.128166" stop-color="#8465FF"/>
<stop offset="0.498777" stop-opacity="0"/>
</radialGradient>
<linearGradient id="paint2_linear_2830_7564" x1="3.41175" y1="19.2287" x2="114.897" y2="70.7008" gradientUnits="userSpaceOnUse">
<stop offset="0.160598" stop-color="#010916"/>
<stop offset="1" stop-color="#1D1A24"/>
</linearGradient>
<radialGradient id="paint3_radial_2830_7564" cx="0" cy="0" r="1" gradientUnits="userSpaceOnUse" gradientTransform="translate(17.6903 95.4055) rotate(-55.9344) scale(157.001 1060.5)">
<stop stop-color="white"/>
<stop offset="0.128166" stop-color="#8465FF"/>
<stop offset="0.498777" stop-opacity="0"/>
</radialGradient>
<linearGradient id="paint4_linear_2830_7564" x1="3.41175" y1="19.2287" x2="114.897" y2="70.7008" gradientUnits="userSpaceOnUse">
<stop offset="0.160598" stop-color="#010916"/>
<stop offset="1" stop-color="#1D1A24"/>
</linearGradient>
<radialGradient id="paint5_radial_2830_7564" cx="0" cy="0" r="1" gradientUnits="userSpaceOnUse" gradientTransform="translate(17.6903 95.4055) rotate(-55.9344) scale(157.001 1060.5)">
<stop stop-color="white"/>
<stop offset="0.128166" stop-color="#8465FF"/>
<stop offset="0.498777" stop-opacity="0"/>
</radialGradient>
<linearGradient id="paint6_linear_2830_7564" x1="86.8582" y1="-24.9978" x2="89.432" y2="115.369" gradientUnits="userSpaceOnUse">
<stop offset="0.160598" stop-color="#010916"/>
<stop offset="1" stop-color="#1D1A24"/>
</linearGradient>
<radialGradient id="paint7_radial_2830_7564" cx="0" cy="0" r="1" gradientUnits="userSpaceOnUse" gradientTransform="translate(10.2467 66.6351) rotate(-20.59) scale(106.642 117.157)">
<stop offset="0.31345" stop-color="#6D54D3"/>
<stop offset="0.855034" stop-color="#654FC6" stop-opacity="0"/>
</radialGradient>
<radialGradient id="paint8_radial_2830_7564" cx="0" cy="0" r="1" gradientUnits="userSpaceOnUse" gradientTransform="translate(-120.622 31.7737) rotate(9.13201) scale(172.68 184.867)">
<stop stop-color="white"/>
<stop offset="1" stop-color="white" stop-opacity="0"/>
</radialGradient>
<linearGradient id="paint9_linear_2830_7564" x1="5.66466" y1="89.2263" x2="131.569" y2="5.13593" gradientUnits="userSpaceOnUse">
<stop offset="0.0848038" stop-color="#ECD1FF"/>
<stop offset="0.530938" stop-color="#8959E8" stop-opacity="0"/>
</linearGradient>
</defs>
</svg>
